<svg xmlns="http://www.w3.org/2000/svg" viewBox="0 0 100 100" width="100" height="100">
  <rect width="100" height="100" rx="20" fill="#000000"/>
  <!-- Outer liquid gothic drop outline -->
  <path d="M50 12 C50 12 76 42 76 62 C76 76.35 64.35 88 50 88 C35.65 88 24 76.35 24 62 C24 42 50 12 50 12 Z" fill="none" stroke="#988686" stroke-width="3"/>
  <!-- Inner stylized gothic M liquid core -->
  <path d="M50 20 C50 20 68 46 68 62 C68 71.94 59.94 80 50 80 C40.06 80 32 71.94 32 62 C32 46 50 20 50 20 Z" fill="#5C4E4E" opacity="0.4"/>
  <!-- Gothic liquid M arcs -->
  <path d="M36 68 L42 46 L50 58 L58 46 L64 68" stroke="#D1D0D0" stroke-width="3.5" stroke-linecap="round" stroke-linejoin="round" fill="none"/>
  <!-- Center liquid drop accent -->
  <circle cx="50" cy="38" r="4" fill="#988686"/>
</svg>
